<mxfile host="app.diagrams.net" agent="Mozilla/5.0 (Windows NT 10.0; Win64; x64) AppleWebKit/537.36 (KHTML, like Gecko) Chrome/136.0.0.0 Safari/537.36" version="27.0.6">
  <diagram name="Pagina-1" id="kpaGEh9nXqvZMZwJ1vCg">
    <mxGraphModel dx="1426" dy="751" grid="1" gridSize="10" guides="1" tooltips="1" connect="1" arrows="1" fold="1" page="1" pageScale="1" pageWidth="827" pageHeight="1169" background="light-dark(#FFFFFF,#F9F9F9)" math="0" shadow="0">
      <root>
        <mxCell id="0" />
        <mxCell id="1" parent="0" />
        <mxCell id="63nMXdjKHjXVxSIOHGQp-1" value="&lt;font style=&quot;color: light-dark(rgb(0, 0, 0), rgb(0, 0, 0)); font-size: 14px;&quot;&gt;Chair&lt;/font&gt;" style="shape=umlActor;verticalLabelPosition=bottom;verticalAlign=top;html=1;outlineConnect=0;strokeColor=light-dark(#000000,#000000);fillColor=light-dark(#FFFFC6,#FDF89C);" parent="1" vertex="1">
          <mxGeometry x="110" y="260" width="30" height="60" as="geometry" />
        </mxCell>
        <mxCell id="63nMXdjKHjXVxSIOHGQp-8" value="&lt;font face=&quot;Courier New&quot;&gt;&lt;span style=&quot;caret-color: rgb(0, 0, 0); font-size: 14px;&quot;&gt;&lt;b style=&quot;&quot;&gt;&lt;font style=&quot;color: light-dark(rgb(0, 0, 0), rgb(0, 0, 0));&quot;&gt;Modifica dati&lt;/font&gt;&lt;/b&gt;&lt;/span&gt;&lt;/font&gt;&lt;div&gt;&lt;font style=&quot;color: light-dark(rgb(0, 0, 0), rgb(0, 0, 0));&quot; face=&quot;Courier New&quot;&gt;&lt;span style=&quot;caret-color: rgb(0, 0, 0); font-size: 14px;&quot;&gt;&lt;b style=&quot;&quot;&gt;conferenza&lt;/b&gt;&lt;/span&gt;&lt;/font&gt;&lt;/div&gt;" style="ellipse;whiteSpace=wrap;html=1;fillColor=light-dark(#FFFFC6,#FDF89C);strokeColor=light-dark(#000000,#000000);gradientColor=none;" parent="1" vertex="1">
          <mxGeometry x="352" y="210" width="140" height="50" as="geometry" />
        </mxCell>
        <mxCell id="63nMXdjKHjXVxSIOHGQp-9" value="&lt;b style=&quot;font-size: 14px; caret-color: light-dark(rgb(0, 0, 0), rgb(237, 237, 237)); color: light-dark(rgb(0, 0, 0), rgb(0, 0, 0)); font-family: &amp;quot;Courier New&amp;quot;; background-color: transparent;&quot;&gt;Invita&amp;nbsp;&lt;/b&gt;&lt;div&gt;&lt;font style=&quot;color: light-dark(rgb(0, 0, 0), rgb(0, 0, 0));&quot; face=&quot;Courier New&quot;&gt;&lt;span style=&quot;caret-color: rgb(0, 0, 0); font-size: 14px;&quot;&gt;&lt;b style=&quot;&quot;&gt;revisori&lt;/b&gt;&lt;/span&gt;&lt;/font&gt;&lt;/div&gt;" style="ellipse;whiteSpace=wrap;html=1;fillColor=light-dark(#FFFFC6,#FDF89C);strokeColor=light-dark(#000000,#000000);gradientColor=none;" parent="1" vertex="1">
          <mxGeometry x="343" y="290" width="158" height="60" as="geometry" />
        </mxCell>
        <mxCell id="63nMXdjKHjXVxSIOHGQp-14" style="rounded=0;orthogonalLoop=1;jettySize=auto;html=1;strokeColor=light-dark(#000000,#000000);endArrow=none;startFill=0;entryX=0;entryY=0.5;entryDx=0;entryDy=0;" parent="1" target="63nMXdjKHjXVxSIOHGQp-8" edge="1">
          <mxGeometry relative="1" as="geometry">
            <mxPoint x="150" y="280" as="sourcePoint" />
            <mxPoint x="350.43999999999994" y="310.94999999999993" as="targetPoint" />
          </mxGeometry>
        </mxCell>
        <mxCell id="63nMXdjKHjXVxSIOHGQp-15" style="rounded=0;orthogonalLoop=1;jettySize=auto;html=1;strokeColor=light-dark(#000000,#000000);endArrow=none;startFill=0;entryX=0;entryY=0.5;entryDx=0;entryDy=0;" parent="1" target="63nMXdjKHjXVxSIOHGQp-9" edge="1">
          <mxGeometry relative="1" as="geometry">
            <mxPoint x="150" y="280" as="sourcePoint" />
            <mxPoint x="364.26626457466534" y="387.40711399920133" as="targetPoint" />
          </mxGeometry>
        </mxCell>
        <mxCell id="63nMXdjKHjXVxSIOHGQp-19" value="&lt;font style=&quot;color: light-dark(rgb(0, 0, 0), rgb(0, 0, 0)); font-size: 14px;&quot;&gt;DBMS&lt;/font&gt;" style="shape=umlActor;verticalLabelPosition=bottom;verticalAlign=top;html=1;outlineConnect=0;strokeColor=light-dark(#000000,#000000);fillColor=light-dark(#FFFFC6,#FDF89C);" parent="1" vertex="1">
          <mxGeometry x="720" y="260" width="30" height="60" as="geometry" />
        </mxCell>
        <mxCell id="63nMXdjKHjXVxSIOHGQp-24" style="rounded=0;orthogonalLoop=1;jettySize=auto;html=1;strokeColor=light-dark(#000000,#000000);endArrow=none;startFill=0;entryX=0.98;entryY=0.337;entryDx=0;entryDy=0;entryPerimeter=0;" parent="1" target="63nMXdjKHjXVxSIOHGQp-8" edge="1">
          <mxGeometry relative="1" as="geometry">
            <mxPoint x="710" y="280" as="sourcePoint" />
            <mxPoint x="460" y="305" as="targetPoint" />
          </mxGeometry>
        </mxCell>
        <mxCell id="63nMXdjKHjXVxSIOHGQp-25" style="rounded=0;orthogonalLoop=1;jettySize=auto;html=1;strokeColor=light-dark(#000000,#000000);endArrow=none;startFill=0;entryX=0.98;entryY=0.303;entryDx=0;entryDy=0;entryPerimeter=0;" parent="1" target="63nMXdjKHjXVxSIOHGQp-9" edge="1">
          <mxGeometry relative="1" as="geometry">
            <mxPoint x="710" y="280" as="sourcePoint" />
            <mxPoint x="490" y="330" as="targetPoint" />
          </mxGeometry>
        </mxCell>
        <mxCell id="63nMXdjKHjXVxSIOHGQp-27" value="uc" style="shape=umlFrame;whiteSpace=wrap;html=1;pointerEvents=0;strokeColor=light-dark(#000000,#000000);width=76;height=28;" parent="1" vertex="1">
          <mxGeometry x="70" y="150" width="720" height="330" as="geometry" />
        </mxCell>
        <mxCell id="KsZP2SV8QTDl8egE0gP7-3" value="&lt;div&gt;&lt;font style=&quot;color: light-dark(rgb(0, 0, 0), rgb(0, 0, 0));&quot; face=&quot;Courier New&quot;&gt;&lt;span style=&quot;caret-color: rgb(0, 0, 0); font-size: 14px;&quot;&gt;&lt;b style=&quot;&quot;&gt;Controllo&amp;nbsp;&lt;/b&gt;&lt;/span&gt;&lt;/font&gt;&lt;/div&gt;&lt;div&gt;&lt;font style=&quot;color: light-dark(rgb(0, 0, 0), rgb(0, 0, 0));&quot; face=&quot;Courier New&quot;&gt;&lt;span style=&quot;caret-color: rgb(0, 0, 0); font-size: 14px;&quot;&gt;&lt;b style=&quot;&quot;&gt;revisori&lt;/b&gt;&lt;/span&gt;&lt;/font&gt;&lt;/div&gt;" style="ellipse;whiteSpace=wrap;html=1;fillColor=light-dark(#FFFFC6,#FDF89C);strokeColor=light-dark(#000000,#000000);gradientColor=none;" vertex="1" parent="1">
          <mxGeometry x="343" y="380" width="158" height="60" as="geometry" />
        </mxCell>
        <mxCell id="KsZP2SV8QTDl8egE0gP7-4" style="rounded=0;orthogonalLoop=1;jettySize=auto;html=1;strokeColor=light-dark(#000000,#000000);endArrow=none;startFill=0;entryX=0;entryY=0.5;entryDx=0;entryDy=0;" edge="1" parent="1" target="KsZP2SV8QTDl8egE0gP7-3">
          <mxGeometry relative="1" as="geometry">
            <mxPoint x="150" y="280" as="sourcePoint" />
            <mxPoint x="364.26626457466534" y="477.40711399920133" as="targetPoint" />
          </mxGeometry>
        </mxCell>
        <mxCell id="KsZP2SV8QTDl8egE0gP7-5" style="rounded=0;orthogonalLoop=1;jettySize=auto;html=1;strokeColor=light-dark(#000000,#000000);endArrow=none;startFill=0;entryX=0.98;entryY=0.303;entryDx=0;entryDy=0;entryPerimeter=0;" edge="1" parent="1" target="KsZP2SV8QTDl8egE0gP7-3">
          <mxGeometry relative="1" as="geometry">
            <mxPoint x="710" y="280" as="sourcePoint" />
            <mxPoint x="490" y="420" as="targetPoint" />
          </mxGeometry>
        </mxCell>
      </root>
    </mxGraphModel>
  </diagram>
</mxfile>
